HIERARCHY
ROOT Hips
{
	OFFSET 0.000000 0.000000 0.000000
	CHANNELS 6 Xposition Yposition Zposition Yrotation Xrotation Zrotation
	JOINT Spine1
	{
		OFFSET 0.000000 -0.000001 5.553894
		CHANNELS 6 Xposition Yposition Zposition Yrotation Xrotation Zrotation
		JOINT Neck
		{
			OFFSET 0.000000 -0.000001 4.427760
			CHANNELS 6 Xposition Yposition Zposition Yrotation Xrotation Zrotation
			JOINT Head
			{
				OFFSET 0.000000 -0.363272 2.815360
				CHANNELS 6 Xposition Yposition Zposition Yrotation Xrotation Zrotation
				End Site
				{
					OFFSET 0.000000 -0.000001 3.632711
				}
			}
		}
		JOINT LeftShoulder
		{
			OFFSET 0.731534 0.096024 3.575179
			CHANNELS 6 Xposition Yposition Zposition Yrotation Xrotation Zrotation
			JOINT LeftArm
			{
				OFFSET 2.610320 0.000000 0.000000
				CHANNELS 6 Xposition Yposition Zposition Yrotation Xrotation Zrotation
				JOINT LeftForeArm
				{
					OFFSET 5.118420 0.000000 0.000000
					CHANNELS 6 Xposition Yposition Zposition Yrotation Xrotation Zrotation
					JOINT LeftHand
					{
						OFFSET 4.756899 0.000000 0.000000
						CHANNELS 6 Xposition Yposition Zposition Yrotation Xrotation Zrotation
						End Site
						{
							OFFSET 2.724534 0.000000 0.000000
						}
					}
				}
			}
		}
		JOINT RightShoulder
		{
			OFFSET -0.721442 0.096024 3.575179
			CHANNELS 6 Xposition Yposition Zposition Yrotation Xrotation Zrotation
			JOINT RightArm
			{
				OFFSET -2.610320 0.000000 0.000000
				CHANNELS 6 Xposition Yposition Zposition Yrotation Xrotation Zrotation
				JOINT RightForeArm
				{
					OFFSET -5.118420 0.000000 0.000000
					CHANNELS 6 Xposition Yposition Zposition Yrotation Xrotation Zrotation
					JOINT RightHand
					{
						OFFSET -4.756900 0.000000 0.000000
						CHANNELS 6 Xposition Yposition Zposition Yrotation Xrotation Zrotation
						End Site
						{
							OFFSET -2.724534 0.000000 0.000000
						}
					}
				}
			}
		}
	}
	JOINT LeftUpLeg
	{
		OFFSET 1.816360 0.000000 0.000000
		CHANNELS 6 Xposition Yposition Zposition Yrotation Xrotation Zrotation
		JOINT LeftLeg
		{
			OFFSET 0.000000 0.000001 -7.638980
			CHANNELS 6 Xposition Yposition Zposition Yrotation Xrotation Zrotation
			JOINT LeftFoot
			{
				OFFSET 0.000000 0.000001 -8.008600
				CHANNELS 6 Xposition Yposition Zposition Yrotation Xrotation Zrotation
				JOINT LeftToeBase
				{
					OFFSET 0.000000 -2.724540 -1.180634
					CHANNELS 6 Xposition Yposition Zposition Yrotation Xrotation Zrotation
					End Site
					{
						OFFSET 0.000000 -0.726542 0.000000
					}
				}
			}
		}
	}
	JOINT RightUpLeg
	{
		OFFSET -1.816360 0.000000 0.000000
		CHANNELS 6 Xposition Yposition Zposition Yrotation Xrotation Zrotation
		JOINT RightLeg
		{
			OFFSET 0.000000 0.000001 -7.638980
			CHANNELS 6 Xposition Yposition Zposition Yrotation Xrotation Zrotation
			JOINT RightFoot
			{
				OFFSET 0.000000 0.000001 -8.008600
				CHANNELS 6 Xposition Yposition Zposition Yrotation Xrotation Zrotation
				JOINT RightToeBase
				{
					OFFSET 0.000000 -2.724540 -1.180634
					CHANNELS 6 Xposition Yposition Zposition Yrotation Xrotation Zrotation
					End Site
					{
						OFFSET 0.000000 -0.726542 0.000000
					}
				}
			}
		}
	}
}
MOTION
Frames: 7
Frame Time: 0.041667
-0.685280 -0.369185 15.019623 -3.035022 18.162581 -2.074838 0.000000 -0.000001 5.553896 -10.641006 -20.208996 0.668305 -0.000000 -0.000000 4.427759 -3.744258 10.808351 -4.033035 0.000000 -0.363272 2.815357 14.696026 3.398008 -0.979025 0.731534 0.096025 3.575181 -17.771027 -4.678602 2.855335 2.610320 0.000000 0.000001 10.290551 -10.137775 -10.873011 5.118420 -0.000000 0.000001 2.470068 -6.659368 1.001202 4.756899 0.000001 0.000001 -5.656349 -5.805521 16.827301 -0.721442 0.096025 3.575178 13.892886 0.201848 -4.388629 -2.610320 -0.000000 0.000004 -14.473830 24.911257 17.355195 -5.118420 0.000000 0.000004 43.954074 -28.248013 77.322236 -4.756903 0.000002 0.000003 33.045237 8.761581 0.345799 1.816360 0.000000 0.000000 -27.652864 -29.056014 29.535797 0.000000 0.000002 -7.638979 13.438211 29.813240 20.562672 -0.000000 0.000001 -8.008598 8.006761 1.647354 18.602480 0.000000 -2.724539 -1.180635 -0.000002 -0.000000 -0.000001 -1.816360 0.000000 -0.000000 33.795383 -29.620652 -4.471642 -0.000001 0.000002 -7.638983 -24.585908 21.924614 -28.210606 0.000001 0.000001 -8.008599 -10.107195 -8.206766 -25.697467 0.000000 -2.724540 -1.180634 -0.000001 -0.000001 0.000003 
-0.686666 -0.368706 15.020225 -3.068449 18.187879 -2.074391 0.000000 -0.000001 5.553893 -10.652565 -20.208861 0.691127 -0.000001 -0.000000 4.427762 -3.627560 10.804145 -3.899364 -0.000000 -0.363271 2.815353 14.664414 3.469208 -0.863663 0.731533 0.096024 3.575181 -17.751991 -4.746001 2.849966 2.610321 -0.000000 -0.000001 10.270260 -10.144783 -10.848250 5.118419 0.000000 0.000000 2.460329 -6.657790 1.004054 4.756899 -0.000000 -0.000001 -5.652537 -5.801797 16.881422 -0.721442 0.096024 3.575181 13.895129 0.132341 -4.356186 -2.610321 -0.000000 -0.000004 -14.477542 24.875547 17.335999 -5.118419 -0.000000 -0.000000 43.883658 -28.239176 77.423008 -4.756903 0.000002 0.000002 33.039903 8.776586 0.332522 1.816360 0.000000 -0.000003 -27.604734 -29.092036 29.439830 -0.000001 0.000001 -7.638978 13.446089 29.783791 20.626311 0.000000 0.000001 -8.008600 8.032984 1.664908 18.625229 0.000000 -2.724539 -1.180633 0.000000 -0.000001 -0.000004 -1.816360 0.000001 -0.000000 33.834066 -29.626871 -4.483320 0.000000 0.000001 -7.638980 -24.586106 21.893900 -28.259670 0.000001 0.000002 -8.008599 -10.091678 -8.206910 -25.664333 0.000000 -2.724540 -1.180634 0.000001 -0.000000 0.000006 
-0.686960 -0.370022 15.020736 -3.121773 18.184911 -2.074686 0.000000 -0.000000 5.553893 -10.631008 -20.200786 0.719588 0.000000 -0.000001 4.427761 -3.422820 10.881086 -3.743360 0.000001 -0.363272 2.815360 14.523216 3.454008 -0.771365 0.731534 0.096024 3.575182 -17.768739 -4.788662 2.833995 2.610320 -0.000000 0.000003 10.287762 -10.133419 -10.848633 5.118420 -0.000001 0.000000 2.402799 -6.633258 1.012826 4.756898 0.000000 0.000001 -5.510337 -5.794703 16.960854 -0.721442 0.096024 3.575178 13.930256 0.113923 -4.346039 -2.610321 -0.000000 -0.000001 -14.527934 24.827664 17.328009 -5.118420 -0.000001 -0.000001 43.796259 -28.210155 77.514328 -4.756902 0.000001 -0.000000 33.066179 8.788369 0.323722 1.816360 0.000000 -0.000001 -27.514647 -29.089301 29.337165 -0.000000 0.000002 -7.638980 13.443726 29.738292 20.650945 0.000000 0.000002 -8.008599 8.022657 1.699837 18.674885 -0.000000 -2.724540 -1.180635 -0.000000 0.000000 -0.000001 -1.816360 0.000000 -0.000001 33.897437 -29.602600 -4.496793 -0.000001 0.000002 -7.638979 -24.598527 21.875045 -28.272723 0.000000 0.000001 -8.008601 -10.085394 -8.224292 -25.659554 -0.000000 -2.724539 -1.180633 0.000000 0.000001 0.000004 
-0.688733 -0.369333 15.021406 -3.136645 18.199141 -2.050427 0.000000 -0.000000 5.553896 -10.636484 -20.185922 0.748072 0.000000 -0.000000 4.427760 -3.195427 11.033079 -3.604084 -0.000001 -0.363272 2.815363 14.399543 3.284686 -0.715986 0.731534 0.096024 3.575181 -17.710807 -4.851703 2.769615 2.610320 0.000000 -0.000000 10.207520 -10.153399 -10.866505 5.118421 -0.000000 -0.000003 2.376428 -6.643004 1.047794 4.756902 -0.000001 0.000003 -5.493268 -5.805604 16.979415 -0.721442 0.096025 3.575181 13.980980 0.093152 -4.335675 -2.610320 -0.000000 -0.000003 -14.616931 24.776911 17.275734 -5.118421 -0.000001 0.000001 43.777589 -28.168412 77.531076 -4.756902 0.000003 0.000004 33.085467 8.802572 0.410365 1.816360 0.000000 -0.000000 -27.482140 -29.123343 29.259164 -0.000000 0.000002 -7.638978 13.443861 29.722897 20.666911 -0.000000 0.000001 -8.008598 8.067942 1.707338 18.706164 0.000000 -2.724539 -1.180633 0.000001 0.000002 -0.000001 -1.816360 0.000000 -0.000000 33.919088 -29.590681 -4.500756 -0.000000 0.000001 -7.638978 -24.605975 21.849820 -28.307839 0.000001 0.000001 -8.008600 -10.119950 -8.251700 -25.655481 0.000000 -2.724540 -1.180634 0.000001 -0.000002 0.000005 
-0.690357 -0.369239 15.022151 -3.149455 18.212214 -2.024225 -0.000000 -0.000000 5.553892 -10.583439 -20.179637 0.770293 0.000001 -0.000001 4.427761 -3.000965 11.137282 -3.430190 0.000001 -0.363271 2.815365 14.296996 3.184720 -0.606776 0.731535 0.096024 3.575181 -17.697090 -4.897583 2.800994 2.610318 -0.000000 0.000000 10.111861 -10.219653 -10.983225 5.118420 -0.000000 -0.000004 2.371663 -6.613480 1.085534 4.756899 0.000000 -0.000002 -5.494332 -5.774802 16.986491 -0.721442 0.096024 3.575179 13.989306 0.096937 -4.328955 -2.610321 -0.000000 0.000000 -14.701320 24.779551 17.247870 -5.118420 -0.000002 -0.000001 43.746207 -28.164082 77.536663 -4.756902 0.000002 -0.000001 33.084251 8.787674 0.381616 1.816360 0.000001 -0.000001 -27.444361 -29.148454 29.213129 -0.000000 0.000002 -7.638980 13.420041 29.700179 20.648128 -0.000000 0.000002 -8.008600 8.081421 1.735347 18.731461 -0.000000 -2.724540 -1.180633 0.000000 -0.000000 -0.000000 -1.816360 0.000001 -0.000002 33.941037 -29.576703 -4.504509 0.000000 0.000001 -7.638980 -24.613077 21.824927 -28.326944 0.000000 0.000002 -8.008601 -10.084501 -8.258843 -25.661600 -0.000000 -2.724540 -1.180634 -0.000000 -0.000000 0.000002 
-0.692036 -0.369560 15.022922 -3.145442 18.219980 -1.992352 0.000000 -0.000001 5.553892 -10.520644 -20.163548 0.813814 0.000000 -0.000001 4.427762 -2.779712 11.233071 -3.246924 0.000000 -0.363273 2.815359 14.150097 3.092399 -0.500544 0.731534 0.096024 3.575180 -17.676711 -4.933225 2.838789 2.610319 0.000000 -0.000002 9.986862 -10.314657 -11.148558 5.118422 -0.000000 0.000000 2.354853 -6.538114 1.118183 4.756899 0.000001 -0.000001 -5.433642 -5.707964 16.984246 -0.721442 0.096024 3.575177 14.004727 0.085487 -4.334945 -2.610320 -0.000000 0.000004 -14.835714 24.822753 17.182674 -5.118420 0.000000 0.000003 43.761305 -28.161770 77.503263 -4.756903 0.000000 0.000001 33.111149 8.785854 0.366294 1.816360 0.000000 -0.000000 -27.423676 -29.164839 29.143946 0.000000 0.000001 -7.638980 13.415373 29.674088 20.627603 0.000000 0.000001 -8.008600 8.092126 1.745398 18.775831 0.000001 -2.724540 -1.180633 -0.000001 -0.000000 -0.000005 -1.816360 0.000000 -0.000001 33.941143 -29.557032 -4.501400 -0.000000 0.000001 -7.638978 -24.623173 21.795277 -28.388542 0.000001 0.000001 -8.008601 -10.078180 -8.260461 -25.650644 -0.000001 -2.724540 -1.180633 -0.000000 0.000001 0.000002 
-0.693867 -0.369801 15.024158 -3.132470 18.225807 -1.951050 -0.000000 -0.000000 5.553895 -10.453307 -20.142851 0.832623 -0.000000 -0.000000 4.427758 -2.505419 11.310839 -3.027682 -0.000001 -0.363272 2.815358 13.966935 3.059257 -0.368623 0.731533 0.096025 3.575178 -17.663151 -4.975130 2.901957 2.610317 0.000000 -0.000001 9.865178 -10.329896 -11.325471 5.118419 0.000000 -0.000003 2.340511 -6.562283 1.092142 4.756900 -0.000001 -0.000001 -5.553436 -5.716087 16.961837 -0.721442 0.096024 3.575177 14.005451 -0.020543 -4.226619 -2.610320 0.000000 -0.000002 -14.995981 25.045513 16.916680 -5.118420 -0.000000 -0.000001 43.888678 -28.269480 77.388891 -4.756903 0.000000 -0.000000 33.083893 8.739291 0.275508 1.816360 0.000001 -0.000000 -27.401700 -29.179716 29.108781 0.000000 0.000001 -7.638980 13.378437 29.645446 20.566898 0.000000 0.000001 -8.008600 8.076354 1.783877 18.815855 0.000000 -2.724540 -1.180634 0.000001 -0.000002 -0.000001 -1.816360 0.000000 -0.000001 33.928008 -29.530951 -4.493681 -0.000000 0.000001 -7.638982 -24.615278 21.774756 -28.376936 0.000001 0.000002 -8.008599 -10.086797 -8.274687 -25.676450 0.000000 -2.724540 -1.180633 0.000000 -0.000000 0.000005 
